<?xml version="1.0" standalone="no"?>
<!DOCTYPE svg PUBLIC "-//W3C//DTD SVG 20010904//EN"
 "http://www.w3.org/TR/2001/REC-SVG-20010904/DTD/svg10.dtd">
<svg version="1.0" xmlns="http://www.w3.org/2000/svg"
 width="512.000000pt" height="512.000000pt" viewBox="0 0 512.000000 512.000000"
 preserveAspectRatio="xMidYMid meet">
<metadata>
Created by potrace 1.11, written by Peter Selinger 2001-2013
</metadata>
<g transform="translate(0.000000,512.000000) scale(0.100000,-0.100000)"
fill="#000000" stroke="none">
<path d="M371 5104 c-119 -32 -235 -122 -301 -234 -76 -127 -70 81 -68 -2529
l3 -2342 510 510 510 510 1825 1 c1617 0 1833 2 1885 16 187 48 336 200 374
382 8 38 11 516 11 1660 0 1773 4 1665 -62 1781 -45 78 -111 146 -188 191
-127 76 58 70 -2315 69 -1832 0 -2138 -2 -2184 -15z m3934 -1544 l225 225 0
-40 c0 -22 3 -69 5 -105 3 -36 14 -283 25 -550 12 -267 26 -610 33 -764 l12
-278 -100 6 c-55 4 -316 15 -580 26 -264 11 -570 24 -680 30 -110 5 -240 10
-289 11 l-88 2 226 226 226 226 -457 457 -458 458 380 380 380 380 457 -457
458 -458 225 225z m-3325 441 c234 -11 613 -28 843 -37 l418 -18 -228 -228
-228 -228 458 -458 457 -457 -377 -378 -378 -377 -457 457 -458 458 -224 -224
-224 -224 -5 44 c-5 40 -34 698 -57 1299 -5 135 -12 278 -15 318 l-6 72 28 0
c15 0 219 -9 453 -19z"/>
</g>
</svg>
