<svg width="76" height="76" version="1.1" viewBox="0 0 20.108 20.108" xmlns="http://www.w3.org/2000/svg">
<path d="m18.097 0h-16.086a2.0108 2.0108 0 0 0-2.0108 2.0108v18.097l4.0216-4.0216h14.076a2.0108 2.0108 0 0 0 2.0108-2.0108v-12.065c0-1.116-0.90488-2.0108-2.0108-2.0108z" fill="#329c74" stroke-width="1.0054"/>
<path d="m11.291 11.859 1.8551-1.9061-3.7102-3.8122 3.0919-3.1768 3.7102 3.8122 1.8551-1.9061 0.30921 7.3067-7.1113-0.31768m-9.5848-7.942 0.30918 7.3067 1.8551-1.9061 3.7102 3.8122 3.0919-3.1768-3.7102-3.8122 1.8551-1.9061z" fill="#fff" stroke-width=".88644"/>
</svg>
