<svg data-name="Layer 1" xmlns="http://www.w3.org/2000/svg" xmlns:xlink="http://www.w3.org/1999/xlink" viewBox="0 0 418.13 215.42"><defs><linearGradient id="a" x1="206" y1="148.02" x2="143.08" y2="213.21" gradientUnits="userSpaceOnUse"><stop offset="0" stop-opacity="0"/><stop offset=".99"/></linearGradient><linearGradient id="c" x1="363.77" y1="184.2" x2="355.61" y2="160.36" xlink:href="#a"/><linearGradient id="d" x1="426.97" y1="83.54" x2="312.02" y2="87.77" xlink:href="#a"/><linearGradient id="b" x1="353.03" y1="54.05" x2="364.51" y2="149.82" gradientUnits="userSpaceOnUse"><stop offset=".02" stop-color="#f5f4f2" stop-opacity="0"/><stop offset=".32" stop-color="#f5f4f2" stop-opacity=".39"/><stop offset=".68" stop-color="#f5f4f2" stop-opacity=".68"/><stop offset="1" stop-color="#f5f4f2"/></linearGradient><linearGradient id="e" x1="356.85" y1="122.22" x2="385.32" y2="132.87" xlink:href="#a"/><linearGradient id="f" x1="379.48" y1="182.61" x2="365.66" y2="174.08" xlink:href="#a"/><linearGradient id="g" x1="-926.14" y1="153.13" x2="-932.32" y2="135.06" gradientTransform="matrix(-1 0 0 1 -869.17 0)" xlink:href="#a"/><linearGradient id="h" x1="-877.2" y1="121.54" x2="-964.33" y2="124.74" gradientTransform="matrix(-1 0 0 1 -870.52 -58.98)" xlink:href="#a"/><linearGradient id="i" x1="-933.24" y1="99.18" x2="-924.54" y2="171.77" gradientTransform="matrix(-1 0 0 1 -870.52 -58.98)" xlink:href="#b"/><linearGradient id="j" x1="-930.35" y1="150.85" x2="-908.77" y2="158.92" gradientTransform="matrix(1 0 0 -1 989.76 302.36)" xlink:href="#a"/><linearGradient id="k" x1="-914.23" y1="151.92" x2="-924.71" y2="145.46" gradientTransform="matrix(-1 0 0 1 -869.17 0)" xlink:href="#a"/><linearGradient id="l" x1="78.78" y1="-1.65" x2="95.65" y2="107.67" gradientTransform="rotate(8.1 -352.518 1207.235)" xlink:href="#a"/><linearGradient id="m" x1="103.86" y1="36.48" x2="104.25" y2="68.9" gradientTransform="translate(169.33 79.8)" xlink:href="#a"/><linearGradient id="n" x1="452.76" y1="384.48" x2="468.36" y2="485.49" gradientTransform="matrix(.94 -.35 .35 .94 -467.87 -70.22)" xlink:href="#a"/><linearGradient id="o" x1="475.94" y1="419.71" x2="476.3" y2="449.67" gradientTransform="translate(-346.33 -266.75)" xlink:href="#a"/><linearGradient id="p" x1="236.39" y1="314.17" x2="236.7" y2="348.5" gradientTransform="translate(-94.58 -80.36)" xlink:href="#a"/></defs><path d="M114.14 35.02c-19.87 10.31-41.87 15.86-62.31 25s-40.19 23.19-48.65 44c-2.34 5.71-3.74 12-2.97 18.17 1.75 14 13.89 24.22 26.13 31.17 26.72 15.19 57.61 21.63 84.87 35.84 11.75 6.13 22.79 13.68 35 18.81 29.78 12.51 65.77 9 92.54-9.11 10.78-7.28 20.12-16.71 31.67-22.67 18-9.29 39.27-9.12 59.54-8.52s41.41 1.25 59.82-7.26 32.87-29.34 27-48.76c-3.66-12.14-14.25-21-25.51-26.85s-23.6-9.37-34.88-15.17c-32.47-16.72-54.1-51.06-88.24-64-27.41-10.46-57.51-4.93-84.41 4.43-11.38 4-22.61 3.28-34 6.9-12.68 4.02-23.87 11.87-35.6 18.02z" fill="#e13061" opacity=".24" style="isolation:isolate"/><path d="M198.17 139.3c-56.86 0-101.39-13.15-101.39-29.94s44.53-29.93 101.39-29.93 101.38 13.15 101.38 29.93-44.53 29.94-101.38 29.94zm0-57.16c-53.49 0-98.68 12.47-98.68 27.22s45.19 27.23 98.68 27.23 98.67-12.47 98.67-27.23-45.2-27.22-98.67-27.22z" fill="#e13061"/><path d="M201.27 167.69c-46.41 0-90.07-5.6-122.93-15.77-33.36-10.33-51.7-24.27-51.7-39.27s18.37-28.94 51.73-39.27c32.86-10.16 76.52-15.77 122.93-15.77s90.08 5.61 122.93 15.77c33.37 10.33 51.74 24.28 51.74 39.27s-18.37 28.94-51.74 39.27c-32.88 10.17-76.54 15.77-122.96 15.77zm0-107.26c-46.14 0-89.5 5.56-122.09 15.65-31.62 9.78-49.76 23.11-49.76 36.57s18.14 26.79 49.76 36.58c32.59 10.09 76 15.64 122.09 15.64s89.51-5.55 122.1-15.64c31.62-9.79 49.75-23.12 49.75-36.58s-18.13-26.79-49.75-36.57c-32.59-10.06-75.95-15.65-122.1-15.65z" fill="#e13061"/><path d="M199.56 56.84a38.42 38.42 0 10.27 76.83 38.42 38.42 0 00-.27-76.83zm5.7 17.69a.53.53 0 01.06-.31c.11-.16.23-.37.39-.41s.33.13.55.24c-.41.41-.23.64.12.82a.53.53 0 01.21.18 3.47 3.47 0 00.38.8 3 3 0 00.79.46 6.13 6.13 0 01-.74.58 3.2 3.2 0 01-.81.35 3.28 3.28 0 01-.7 0 .69.69 0 000-.13l.48-.3c-.17-.21-.42-.39-.44-.59s.21-.4.35-.63c-.22-.36-.54-.52-.77-.37-.68.46-.73.58-.42 1.07-.44.17-.87.34-1.32.5-.1-.47.44-.88 0-1.3a1 1 0 01.89-.49h.52c.28.02.5-.11.46-.47zm-11-9.79c.9.13 1.8.19 2.7.26a1 1 0 00.91-.29c.1-.13.34-.15.52-.18.7-.11 1.41-.24 2.11-.31a4.21 4.21 0 011.12 0c.86.13 1.72.3 2.57.46a.73.73 0 01.38.17c-.35 0-.72 0-1.07.08a2.06 2.06 0 00-.66.16c-.32.16-.62.33-.64.81a1 1 0 01-.8 1 10.41 10.41 0 00-1.37.61c-.23.11-.23.24 0 .37s.65.35 1 .56c-.55.21-.55.21-1.69-.32.16.28.32.54.49.81-.73.19-1.49.41-2.25.58a3.94 3.94 0 00-1.91.9 3.54 3.54 0 01-1.88.64c-.35.07-.64.13-.64.6 0 .17-.16.37-.3.51a3.18 3.18 0 01-.62.45 1.2 1.2 0 01-1.9-1 3 3 0 010-.73 3.63 3.63 0 01.34-.83 1.82 1.82 0 01.27-.29 1.69 1.69 0 00-.51-2.9 4.43 4.43 0 00-1.78-.6 2.08 2.08 0 01-.6-.29c.85-.14 1.67-.25 2.47-.4a7.79 7.79 0 001-.37 5.39 5.39 0 012.73-.46zm8.41 5.82a.65.65 0 01-.25.51 6.63 6.63 0 01-1 .5.75.75 0 01-.94-.21c-.11-.13-.34-.17-.51-.25a1 1 0 010-.14 5.32 5.32 0 01.5-.21c.55-.15 1.08-.29 1.62-.42.17-.06.48-.06.55.22zm-19.13-4.62c.25-.08.51-.13.78-.2s.61-.13.73-.52a.62.62 0 01.39-.33l.38-.07c.4-.08.81-.15 1.22-.21a5.16 5.16 0 001-.14 4.37 4.37 0 011.86-.28 5.87 5.87 0 00.59 0h.57a.61.61 0 000 .14 5 5 0 01-2.34 1 8.46 8.46 0 00-3.3 1.3c-.32.2-.64.36-.88-.12 0-.09-.22-.14-.36-.16a5.94 5.94 0 01-.92-.16 1.35 1.35 0 01.27-.25zm-2 1.1s-.06 0-.11-.06c.3-.5.62-.65 1.13-.41a2.07 2.07 0 001.58.12.6.6 0 01.08.08c-.08.11-.13.27-.23.31s-.51.12-.77.21a.41.41 0 00-.24.27c0 .06.12.21.21.24l.34.09 2.68.76a.38.38 0 01.17.24 1.94 1.94 0 01-.06.4c-.16.71 0 1 .77 1a.51.51 0 01-.42.53c-.48.12-1 .28-1.42.43-.23.07-.46.14-.39.46a.3.3 0 01-.1.2 1.17 1.17 0 01-1.38 0 .7.7 0 01.4-1.16c.28-.07.58-.09.87-.17a.51.51 0 00.32-.22c0-.07-.09-.24-.18-.33a3.89 3.89 0 00-2-1c-.22 0-.46-.06-.69-.08-.54 0-1.09-.09-1.64-.15-.23 0-.52 0-.54-.35a.49.49 0 01.51-.58 7.89 7.89 0 001.09-.11c.16 0 .39-.14.41-.25.01-.3-.15-.49-.43-.49zm4.75 10.62c.14.16.39.41.35.54a.55.55 0 01-.64.41 13.52 13.52 0 00-1.47-.11 3.6 3.6 0 011.72-1.34l-.35.31a1.18 1.18 0 01.35.19zm1.35 34.23a5.93 5.93 0 00-1.08.9 2.65 2.65 0 00-.36 1 17.66 17.66 0 01-.53 1.89c-.15.35-.58.58-.85.9a1.38 1.38 0 01-1.81.36c-.15.43.14.71.32 1 .26.47.26.47-.19.78a14.84 14.84 0 00-1.14 1 1 1 0 00-.29 1 4 4 0 01-.13 1 1.84 1.84 0 00-.07.51c0 .33.14.65.18 1 .07.55.11 1.12.16 1.68 0 .21.08.34.33.36a.44.44 0 01.29.23c.15.32.28.64.41 1a.81.81 0 01-1.16-.16 1.83 1.83 0 00-.94-.84 2.92 2.92 0 01-1.49-1.45 3.61 3.61 0 01-.64-2.18 1.12 1.12 0 00-.7-1.31c-.11 0-.18-.24-.2-.38-.06-.54-.09-1.1-.14-1.64-.11-1.17-.25-2.33-.32-3.49v-3.79a2.53 2.53 0 00-1.79-2.22 1.1 1.1 0 01-.9-1.14 1.23 1.23 0 00-.69-1.15 2.64 2.64 0 01-1.23-1.48 1.42 1.42 0 00-.35-.5 1.23 1.23 0 01-.35-1.17 3.6 3.6 0 00-.06-.86 2.32 2.32 0 01-.05-.58 3.77 3.77 0 01.6-1.57 8.06 8.06 0 00.85-1.62 1.48 1.48 0 00-.51-1.76.74.74 0 00-.58 0 1 1 0 01-1.2-.07 4.93 4.93 0 01-1.71-1.83.6.6 0 00-.29-.23 1.75 1.75 0 00-.55-.12 1.93 1.93 0 01-1.31-.65 1.89 1.89 0 00-1.57-.58.48.48 0 01-.24 0 6.59 6.59 0 01-3.07-1.78 1.47 1.47 0 01-.26-1.18 36.12 36.12 0 011.58-6.88 37 37 0 014.84-9.67c.77-1.11 1.66-2.16 2.5-3.23.12-.16.25-.24.43-.11a1.08 1.08 0 00.84.12c.69-.08 1.39-.05 2.06-.19a13.18 13.18 0 002.36-.74 2.11 2.11 0 001.05-1.55q.07-.27.18-.54c.2-.66.2-.66.87-.51.48.12 1 .23 1.4.32-.39.14-.8.27-1.19.43s-.27.25-.1.44.53.67.81 1c.09.08.29.15.36.11a3.71 3.71 0 011.78-.24 4.18 4.18 0 01-.55.74 1.64 1.64 0 01-.74.32c-.69.14-1.4.23-2.1.34a1 1 0 01-1 .83 5.15 5.15 0 00-2.46 1.13 1.15 1.15 0 00-.51 1.46c.07.22.14.51.5.32.05 0 .17 0 .25.07.34.18.66.37 1 .54s.56.35.93.22h.19c-.09.56-.18 1.06-.28 1.62a1.13 1.13 0 001-.5c.65-1 1.34-1.86 2-2.78a3.43 3.43 0 00.29-.41 1.78 1.78 0 012-.91c.46.07.77.17.73.72 0 .08.22.22.34.24a3 3 0 001.75-.41 1.25 1.25 0 01.07.26 1.45 1.45 0 010 .36 1.93 1.93 0 001.13 2.28l.18.09a3.86 3.86 0 01-2.45 1.06 3.58 3.58 0 00-1.81.48 10.43 10.43 0 01-1.42.54 2 2 0 00-.46.38l.06.12 1.81-.16c-.07.44 0 .7.47.74.17 0 .32.26.54.44-.77.15-1.17 1-2.16.8l.78-.72c-.36-.41-.46-.45-.94-.14s-.91.67-1.37 1c-.12.09-.23.23-.36.25-.8.15-1.19.81-1.71 1.33l-.11.11a1.18 1.18 0 01-.86.47.65.65 0 00-.43.16.79.79 0 00-.26.48 1.65 1.65 0 01-.94 1.64 10.7 10.7 0 00-1.58 1 1.53 1.53 0 00-.31 1.67 1.42 1.42 0 010 1.24c0 .1-.27.18-.42.18s-.25-.14-.28-.25c-.12-.5-.21-1-.33-1.52a2.49 2.49 0 00-.26-.48h-.1v.57a.25.25 0 01-.1.08c-.14-.15-.26-.3-.4-.43a3.18 3.18 0 00-.63-.46.5.5 0 00-.66.22c-.25.32-.53.62-.78.91a8.19 8.19 0 00-.66-.72.42.42 0 00-.36-.09 2 2 0 00-1.24.71 7.87 7.87 0 01-1.08 1.08.88.88 0 00-.26 1.14 1 1 0 010 .52 1.89 1.89 0 001.36 2.18 1.09 1.09 0 001.31-.51c.1-.22.17-.45.27-.67a.48.48 0 01.66-.3.72.72 0 01.2.61 8 8 0 01-.34 1.11c-.13.42 0 .6.39.7s.64.1 1 .14a.56.56 0 01.58.69 7.47 7.47 0 000 1.42 1.58 1.58 0 00.43.72.47.47 0 00.5 0 1.06 1.06 0 011-.09c.12.05.26.08.38.12.58.14.73 0 1.13-.39a3.2 3.2 0 01.87-.6.27.27 0 01.28.08.26.26 0 010 .27c-.32.28-.15.42.13.54l.68.29c-.44-.71.14-.95.4-1.38.1.08.21.13.3.21a1.79 1.79 0 001.48.59h.08a2.93 2.93 0 012 .82 6 6 0 002.63 1.32 1.42 1.42 0 011 .71c.18.3.41.57.59.86.29.46.2.78-.28 1l-.46.23c.12.23.27.3.49.17a2.1 2.1 0 01.52-.21c.13 0 .27.11.38.2s-.06.16-.09.25-.06.22 0 .23a.45.45 0 00.28.07.33.33 0 00.21-.11.85.85 0 011.27 0c.05.05.15.08.15.12.06.67.51.4.8.29a1.06 1.06 0 01.87.05c.69.3 1.42.54 2.15.8a.51.51 0 01.38.48 3.84 3.84 0 01-1 3.14.52.52 0 01-.22.17c-.32.14-.34.4-.35.69a20.68 20.68 0 01-.11 2.23 5 5 0 01-.47 1.31c-.16.34-.32.69-.86.6a.76.76 0 00-.47.16c-.13.03-.23.11-.31.17zm40.26-3c-.3.74-.48 1.54-.73 2.3a2.78 2.78 0 01-.33.64c-.37.71-.37.71-1.14.57a1.18 1.18 0 01-.74-1.49 3.54 3.54 0 00.5-.82 2.27 2.27 0 000-1 1.1 1.1 0 01.68-1.08.53.53 0 00.3-.14c.38-.38.77-.78 1.13-1.18a2.12 2.12 0 00.21-.4 3.73 3.73 0 01.1 2.6zm7.29-19.78a1.06 1.06 0 00-.94-.4 8.63 8.63 0 01-3.63-.57 8.39 8.39 0 01-2.35-1 6.26 6.26 0 00-1.9-.64 1.23 1.23 0 01.07.32c-.15.92.54 1.35 1.07 1.88.23.22.45.45.7.72l1.59-.43a.85.85 0 011 .39 9.67 9.67 0 00.89.93c.28.31.21.39-.11.63a9.28 9.28 0 00-2.33 1.85.94.94 0 01-.29.27c-.51.33-1 .64-1.53 1a1.4 1.4 0 01-2-.72 5.45 5.45 0 00-1.11-2 4.89 4.89 0 01-.59-1.19 2.11 2.11 0 00-1-1 1.39 1.39 0 01-.85-.9c-.2-.57-.49-1.13-.73-1.7-.57.24-.57.24-.41.8a10.2 10.2 0 001.25 2.73 21 21 0 012.4 4.2c.14.4.24.83.4 1.22.24.59.51.66 1.06.34a.46.46 0 01.19-.08h2.16a14.94 14.94 0 01-.35 1.72 3.31 3.31 0 01-.68 1.3 12.41 12.41 0 01-1.59 1.15 1 1 0 00-.34.36c-.62 1.14-1.21 2.28-1.82 3.41-.16.29-.21.52 0 .76.85.91.6 2 .61 3.11 0 .12-.19.27-.33.35a5.29 5.29 0 00-1.81 1.32 2 2 0 00-.4.84 7.13 7.13 0 01-.87 2.61c-.69 1.17-1.3 2.4-1.93 3.6a.75.75 0 01-.64.48l-1.85.11c-.27 0-.53.08-.8.1a.56.56 0 01-.35-.09c-.22-.17-.41-.38-.58-.53a3.38 3.38 0 00-.46-1.76 4.29 4.29 0 00-.4-.55 3.51 3.51 0 01-.63-2 2.72 2.72 0 00-.35-1.12 5.3 5.3 0 01-.84-2.33 4 4 0 01.25-1.37 2.61 2.61 0 01.24-.54 1.63 1.63 0 00.1-1.21 10 10 0 00-1.72-3.83 1 1 0 010-1 8.35 8.35 0 01.43-.77c.15-.22.14-.4-.13-.5a.74.74 0 01-.52-.57c0-.08-.23-.2-.34-.19a1.76 1.76 0 01-1.46-.53c-.19-.19-.61-.19-.94-.21a2.49 2.49 0 00-.7.14l-3.29.79a1.52 1.52 0 01-1.47-.47 2.15 2.15 0 00-.32-.29 1.64 1.64 0 01-.8-1.36.76.76 0 00-.42-.56c-1-.32-1.14-1.22-1.41-2a.9.9 0 01.19-.69.79.79 0 00.19-.92 2.66 2.66 0 01.21-2.55 3.54 3.54 0 011.13-1.39c.19-.13.24-.46.42-.61a3.85 3.85 0 001.12-1.9 2.28 2.28 0 01.64-.76c.4-.38.83-.73 1.23-1.11.22-.2.37-.22.53.06a.44.44 0 00.33.19l1.82-.24a3.45 3.45 0 01.54-.11 5.57 5.57 0 002.54-.55.81.81 0 01.57 0c.06 0 .06.27.05.42a1.35 1.35 0 00.55 1.06l.89.86c.06.05.13.13.2.14.6.1 1.21.21 1.83.26.3 0 .5-.11.6-.48s.41-.49.62-.73a.69.69 0 000 .13 2.3 2.3 0 00.42.35 4.94 4.94 0 001 .43 2.63 2.63 0 00.79 0 2.26 2.26 0 01.45 0c.64.09 1.27.17 1.91.3a.59.59 0 00.57-.18 1.33 1.33 0 00.66-1.58 6.13 6.13 0 01-.13-.82 1.44 1.44 0 00-1.23.1 1.17 1.17 0 01-1.45-.13 3 3 0 01-1.31-1.72c.62.31.87-.07 1.16-.62-.77.18-1.46.32-2.14.51a.43.43 0 00-.26.66.43.43 0 01.07.26 1.81 1.81 0 01-.14.45c-.19-.08-.47-.11-.55-.27s-.19-.51-.51-.61a.16.16 0 01-.09-.12c.06-.65-.51-1-.78-1.44a.63.63 0 00-.45-.19 1.29 1.29 0 01-1.07-.55 1.45 1.45 0 00-.36-.38c-.21-.16-.47-.27-.67 0a.5.5 0 000 .76 3.58 3.58 0 001.37 1 1.32 1.32 0 01.71.77 1.09 1.09 0 01-1.69-.43 3.64 3.64 0 00-.44-.53 8.32 8.32 0 00-.83-.94c-.41-.37-1.21-.4-1.3.31a1.23 1.23 0 01-.06.22l-.27-.08a1 1 0 00-1.25.48c-.1.15-.25.28-.36.42a1.21 1.21 0 00-.27.38 1.56 1.56 0 01-1.2 1.17 13.47 13.47 0 01-2.3.19.49.49 0 01-.34-.33 6.61 6.61 0 010-1.6 1.13 1.13 0 011.19-.89h1.62c.2 0 .33-.06.31-.31a1.31 1.31 0 010-.28c.11-.64.08-.71-.5-1.05-.17-.1-.36-.17-.53-.27s-.19-.15-.18-.22a.3.3 0 01.19-.22 2.6 2.6 0 01.62-.11 2.14 2.14 0 002-1.26 1.25 1.25 0 011.06-.81c.77-.12.91-.32 1-1.11a3 3 0 01.21-.59h.16a5.31 5.31 0 01.33.83.7.7 0 00.58.59 5.15 5.15 0 00.88 0c.51-.07 1-.17 1.51-.24.18 0 .29 0 .35-.27s.3-.36.47-.53.4-.25.41-.57a.87.87 0 01.81-.62.66.66 0 01.4.27 2.9 2.9 0 01.23.59 1.94 1.94 0 00.58-1.92 3.82 3.82 0 01-.62.13 3.23 3.23 0 01-.88 0c-.84-.18-1-.57-.52-1.27.16-.25.34-.75.26-.8-.32-.24-.61.06-.83.26a3.44 3.44 0 00-1.14 1.71 6.09 6.09 0 01-.72 1.68c-.13.22-.55.31-.85.35-.11 0-.29-.24-.41-.4a4.74 4.74 0 01-.31-.54.65.65 0 000 .13l-1.78.09a1.61 1.61 0 01-.07-.25c-.26-1.28-.38-1.11.86-1.6a3.67 3.67 0 001-.81l.84-.72a.71.71 0 00.15-.15c.84-1.12 2.09-1.3 3.35-1.5a7.89 7.89 0 013.3.59l1.8.53c-.82.66-1.56 0-2.26.12 0 0-.05.08 0 .09a13.5 13.5 0 001.28 1.23.62.62 0 00.88-.42c.07-.25.18-.37.45-.37a.86.86 0 00.78-.54c.14-.27.32-.39.61-.28 0 .31.1.45.41.35a1.26 1.26 0 00.33-.16 1.9 1.9 0 011.2-.27 5.74 5.74 0 001.72-.36c.53-.14.81-.09 1.08.21a38.05 38.05 0 016.26 8.64 37.54 37.54 0 014 12 .56.56 0 010 .13c-.93.06-1.38-.63-1.85-1.15z" fill="#e13061"/><path d="M237.03 90.12c-.95.2-1.37-.49-1.87-1a1 1 0 00-.94-.4 11.92 11.92 0 01-6-1.61 5.53 5.53 0 00-1.9-.63 1.06 1.06 0 01.07.3c-.15.93.53 1.36 1.07 1.89.23.22.44.45.7.72l1.59-.43a.85.85 0 011 .38 9.71 9.71 0 00.88.94c.29.31.22.4-.11.63a9.41 9.41 0 00-2.32 1.85 1 1 0 01-.29.26c-.51.34-1 .66-1.53 1a1.39 1.39 0 01-2-.71 5.45 5.45 0 00-1.11-2 4.83 4.83 0 01-.59-1.18 2 2 0 00-1-1.05 1.42 1.42 0 01-.85-.89c-.2-.59-.48-1.14-.73-1.71-.57.24-.57.24-.42.8a10.73 10.73 0 001.26 2.73 21 21 0 012.4 4.2c.14.4.24.83.4 1.22.25.59.51.66 1.06.34a.36.36 0 01.18-.08h2.17c-.12.59-.18 1.18-.35 1.73a3.26 3.26 0 01-.68 1.29 13.46 13.46 0 01-1.59 1.15 1.2 1.2 0 00-.35.36c-.61 1.13-1.19 2.28-1.81 3.41-.16.29-.21.52 0 .76.84.91.6 2 .61 3.11 0 .11-.19.27-.33.35a5.49 5.49 0 00-1.81 1.32 2 2 0 00-.4.84 6.74 6.74 0 01-.88 2.61c-.68 1.18-1.29 2.4-1.91 3.6a.77.77 0 01-.65.48c-.62 0-1.23.06-1.85.11-.27 0-.53.08-.8.1a.5.5 0 01-.34-.09c-.23-.17-.42-.38-.59-.53a3.6 3.6 0 00-.45-1.76c-.13-.19-.26-.38-.41-.56a3.45 3.45 0 01-.63-1.94 2.67 2.67 0 00-.35-1.13 5.39 5.39 0 01-.85-2.33 3.92 3.92 0 01.27-1.36 2 2 0 01.24-.56 1.65 1.65 0 00.08-1.2 10 10 0 00-1.71-3.83 1 1 0 010-1 7.3 7.3 0 01.44-.77c.15-.23.14-.4-.14-.5a.68.68 0 01-.5-.57.44.44 0 00-.35-.19 1.76 1.76 0 01-1.45-.53 1.64 1.64 0 00-.94-.21 2.49 2.49 0 00-.71.14l-3.29.79a1.56 1.56 0 01-1.47-.46 2.27 2.27 0 00-.32-.3 1.66 1.66 0 01-.8-1.37.77.77 0 00-.42-.55c-1-.32-1.13-1.22-1.4-2a.83.83 0 01.18-.68.78.78 0 00.18-.92 2.72 2.72 0 01.22-2.55 3.55 3.55 0 011.13-1.39c.19-.13.24-.46.42-.61a3.85 3.85 0 001.12-1.9 2.28 2.28 0 01.64-.76c.4-.38.83-.73 1.23-1.11.22-.2.37-.23.54.06a.39.39 0 00.32.19c.6-.07 1.21-.16 1.82-.25a3.53 3.53 0 01.55-.1 5.69 5.69 0 002.53-.55.78.78 0 01.56 0c.07 0 .07.28.06.42a1.32 1.32 0 00.55 1.06c.29.29.6.57.9.85.05.06.11.14.18.15.61.1 1.22.21 1.83.26.31 0 .51-.11.62-.48s.39-.49.6-.73l.06.13a2.36 2.36 0 00.43.35 5 5 0 001 .43 3 3 0 00.79 0 2.26 2.26 0 01.45 0c.63.09 1.28.17 1.91.3a.6.6 0 00.57-.18 1.33 1.33 0 00.66-1.58 6.56 6.56 0 01-.12-.81 1.46 1.46 0 00-1.24.09 1.18 1.18 0 01-1.45-.13 3 3 0 01-1.31-1.72c.61.31.87-.07 1.16-.62-.77.18-1.46.32-2.14.52a.42.42 0 00-.26.65.52.52 0 01.07.27 3.66 3.66 0 01-.13.44c-.2-.08-.48-.12-.56-.26s-.2-.52-.5-.62a.17.17 0 01-.1-.12c.06-.65-.51-1-.78-1.44-.06-.12-.29-.18-.45-.19a1.33 1.33 0 01-1.07-.55 1.63 1.63 0 00-.36-.38c-.21-.17-.47-.28-.68 0a.49.49 0 000 .75 3.57 3.57 0 001.37 1 1.35 1.35 0 01.71.77 1.09 1.09 0 01-1.69-.43 4.33 4.33 0 00-.43-.53 11 11 0 00-.84-.95c-.41-.36-1.21-.39-1.3.32a.73.73 0 01-.06.22l-.27-.08a1 1 0 00-1.25.47c-.1.16-.25.28-.36.43a1.28 1.28 0 00-.28.39 1.52 1.52 0 01-1.18 1.15 12.75 12.75 0 01-2.32.2.49.49 0 01-.33-.34 7 7 0 010-1.59 1.1 1.1 0 011.17-.89h1.62c.21 0 .34-.07.32-.31a1.31 1.31 0 010-.28c.11-.63.08-.71-.5-1.05-.17-.1-.36-.17-.53-.27s-.19-.15-.18-.22a.3.3 0 01.19-.22 3.32 3.32 0 01.63-.11 2.12 2.12 0 002-1.26 1.25 1.25 0 011.06-.81c.77-.12.9-.32 1-1.11a3.19 3.19 0 01.21-.59h.17a5.93 5.93 0 01.32.83c.08.33.25.55.58.58a3.7 3.7 0 00.88 0c.51-.06 1-.16 1.51-.22.19 0 .3 0 .36-.28s.29-.36.46-.53.4-.25.41-.58.53-.65.82-.61a.67.67 0 01.39.28 2.6 2.6 0 01.23.58 2 2 0 00.58-1.92 3.53 3.53 0 01-.63.13 2.82 2.82 0 01-.87 0c-.84-.18-1-.56-.52-1.27.16-.24.33-.75.26-.81-.32-.23-.61.07-.83.27a3.48 3.48 0 00-1.14 1.71 6 6 0 01-.72 1.68c-.14.22-.55.31-.85.35-.12 0-.29-.24-.41-.4a5.79 5.79 0 01-.31-.54v.13l-1.78.09c0-.1-.06-.17-.08-.25-.25-1.29-.37-1.11.86-1.6a4.1 4.1 0 001-.8l.84-.74a.93.93 0 00.15-.13c.84-1.13 2.09-1.31 3.35-1.51a7.82 7.82 0 013.31.6c.56.15 1.12.33 1.79.52-.81.65-1.56 0-2.27.12v.09a13.43 13.43 0 001.29 1.22c.31.23.78 0 .89-.41s.17-.37.43-.37a.89.89 0 00.8-.54c.13-.27.31-.39.6-.28 0 .32.1.45.41.35a1.2 1.2 0 00.32-.16 2 2 0 011.22-.27 6.06 6.06 0 001.71-.35.94.94 0 011.09.19 38.65 38.65 0 016.26 8.65 37.77 37.77 0 013.95 12zM177.29 75.4l-.28 1.61a1.1 1.1 0 001-.51c.65-.93 1.34-1.84 2-2.76a4.15 4.15 0 00.3-.43 1.78 1.78 0 012-.91c.46.07.78.17.74.72 0 .08.2.22.33.24a3 3 0 001.74-.41 1.29 1.29 0 01.08.26 1.45 1.45 0 010 .36 1.92 1.92 0 001.13 2.27l.18.09a3.88 3.88 0 01-2.45 1.07 3.52 3.52 0 00-1.8.48 11.1 11.1 0 01-1.43.54 2.32 2.32 0 00-.46.38l.06.12 1.81-.16c-.07.44 0 .7.47.75.17 0 .33.24.55.42-.79.16-1.18 1-2.16.81l.77-.72c-.37-.4-.46-.44-.94-.14s-.91.67-1.37 1c-.12.09-.23.23-.36.26-.8.14-1.19.8-1.7 1.32a1.45 1.45 0 01-1 .58.65.65 0 00-.43.16.77.77 0 00-.26.48 1.62 1.62 0 01-.94 1.63 12.66 12.66 0 00-1.58 1 1.5 1.5 0 00-.3 1.66 1.48 1.48 0 010 1.25c0 .1-.27.18-.42.19s-.24-.15-.27-.26c-.13-.5-.21-1-.34-1.52a2.91 2.91 0 00-.26-.49l-.1.05v.58l-.1.07a5.33 5.33 0 00-.4-.42 3.13 3.13 0 00-.63-.47.5.5 0 00-.66.21 11.93 11.93 0 01-.78.91 9.61 9.61 0 00-.66-.71.45.45 0 00-.37-.09 2 2 0 00-1.22.7 7.87 7.87 0 01-1.08 1.08.89.89 0 00-.27 1.16.94.94 0 010 .5 1.9 1.9 0 001.36 2.19 1.09 1.09 0 001.31-.51c.1-.22.18-.45.27-.67a.48.48 0 01.66-.3c.14.07.23.41.2.61a7.63 7.63 0 01-.35 1.12c-.13.41 0 .59.4.69s.64.1 1 .14a.57.57 0 01.58.7 6.56 6.56 0 000 1.4 1.64 1.64 0 00.43.74.55.55 0 00.5 0 1 1 0 011-.09l.39.1c.57.14.73 0 1.11-.38a3.42 3.42 0 01.88-.6.3.3 0 01.28.07.26.26 0 010 .28c-.31.28-.14.42.14.54l.68.28c-.43-.7.14-.94.4-1.36a1.34 1.34 0 01.29.2 1.85 1.85 0 001.5.59 2.9 2.9 0 012.06.82 5.89 5.89 0 002.64 1.32 1.45 1.45 0 011 .71c.18.3.41.57.6.86a.62.62 0 01-.29 1l-.46.21c.13.24.26.31.49.18a1.51 1.51 0 01.52-.2.7.7 0 01.38.18s-.06.17-.09.26-.07.22 0 .24a.51.51 0 00.28.07.41.41 0 00.21-.12.84.84 0 011.27 0c.05 0 .15.07.15.12.06.66.51.39.8.28a1 1 0 01.86.05c.71.3 1.43.55 2.16.79a.53.53 0 01.39.49 3.85 3.85 0 01-1 3.13.48.48 0 01-.22.18c-.32.14-.35.4-.35.7 0 .74 0 1.49-.11 2.22a5.27 5.27 0 01-.47 1.31c-.16.34-.32.69-.86.6-.24 0-.55.2-.79.37a5.18 5.18 0 00-1.08.89 2.66 2.66 0 00-.36 1 14.64 14.64 0 01-.53 1.89c-.15.36-.58.59-.85.9a1.36 1.36 0 01-1.81.37c-.15.44.14.71.31 1 .27.47.27.46-.18.78a14.84 14.84 0 00-1.14 1 1.07 1.07 0 00-.3 1 3.58 3.58 0 01-.13 1 2.15 2.15 0 00-.07.5c0 .33.15.66.19 1 .07.56.11 1.12.16 1.67 0 .21.08.35.34.37.1 0 .23.13.28.23.15.31.27.64.41 1a.83.83 0 01-1.17-.16 1.84 1.84 0 00-.94-.84 2.85 2.85 0 01-1.47-1.45 3.48 3.48 0 01-.64-2.18 1.14 1.14 0 00-.71-1.31c-.1 0-.18-.24-.2-.37-.06-.55-.09-1.1-.14-1.65-.11-1.17-.25-2.33-.32-3.49v-3.8a2.52 2.52 0 00-1.79-2.21 1.1 1.1 0 01-.9-1.14 1.25 1.25 0 00-.69-1.15 2.68 2.68 0 01-1.23-1.48 1.54 1.54 0 00-.34-.49 1.24 1.24 0 01-.36-1.18 3.6 3.6 0 00-.06-.86 2.35 2.35 0 01-.05-.59 3.84 3.84 0 01.6-1.56 8.06 8.06 0 00.85-1.62 1.5 1.5 0 00-.51-1.76.67.67 0 00-.57 0 1.07 1.07 0 01-1.21-.07 5 5 0 01-1.71-1.84.68.68 0 00-.29-.24 2.71 2.71 0 00-.55-.12 1.87 1.87 0 01-1.31-.64 1.89 1.89 0 00-1.57-.58.65.65 0 01-.24 0 6.57 6.57 0 01-3.06-1.79 1.43 1.43 0 01-.27-1.18 37.58 37.58 0 011.57-6.87 37.06 37.06 0 014.85-9.68c.77-1.12 1.66-2.15 2.49-3.23.13-.16.26-.23.44-.1a1.09 1.09 0 00.85.11c.68-.08 1.38-.05 2-.19a13 13 0 002.37-.74 2.13 2.13 0 001.06-1.55c.05-.18.11-.36.16-.54.2-.66.2-.66.89-.5l1.39.31c-.39.14-.8.27-1.19.43-.23.09-.27.24-.1.44s.53.68.82 1a.39.39 0 00.35.12 3.56 3.56 0 011.77-.24 3.73 3.73 0 01-.54.74 1.64 1.64 0 01-.74.32c-.69.14-1.4.23-2.1.34a1 1 0 01-1 .84 5 5 0 00-2.45 1.12 1.14 1.14 0 00-.52 1.46c.07.22.14.5.5.33.06 0 .17 0 .25.07.33.17.66.36 1 .53s.56.35.93.23a.26.26 0 01.22-.02zm10.69-9.38c.86-.14 1.68-.25 2.48-.41a6.52 6.52 0 001-.36 5.37 5.37 0 012.77-.52c.89.13 1.79.19 2.69.26a1 1 0 00.92-.3c.09-.12.34-.14.52-.17.7-.11 1.4-.24 2.11-.31a4.21 4.21 0 011.12 0c.86.14 1.72.3 2.58.46a.66.66 0 01.37.17c-.36 0-.72 0-1.07.08a2.13 2.13 0 00-.66.16c-.32.16-.62.34-.63.81a1.05 1.05 0 01-.81 1 13.94 13.94 0 00-1.37.61c-.24.11-.24.24 0 .37l1 .55c-.55.22-.55.22-1.69-.3l.49.8c-.74.19-1.49.41-2.25.58a4.17 4.17 0 00-1.91.9 3.56 3.56 0 01-1.88.64c-.35.06-.64.13-.63.61a.91.91 0 01-.31.5 3.43 3.43 0 01-.61.45 1.2 1.2 0 01-1.91-1 2.5 2.5 0 010-.72 2.94 2.94 0 01.33-.83 1.08 1.08 0 01.27-.3 1.69 1.69 0 00-.51-2.9 4.33 4.33 0 00-1.77-.6 1.75 1.75 0 01-.64-.23z" fill="#f5f4f2"/><path d="M181.4 67.02c.29-.5.61-.65 1.11-.42a2 2 0 001.59.12l.08.09c-.07.11-.13.27-.23.32s-.52.11-.76.2a.43.43 0 00-.25.26c0 .07.12.22.21.25l3 .85a.34.34 0 01.18.25 1.4 1.4 0 01-.07.39c-.16.72 0 1 .78 1a.52.52 0 01-.42.53c-.48.13-1 .27-1.43.43-.21.07-.44.14-.38.46 0 .06-.05.15-.1.2a1.19 1.19 0 01-1.38 0 .7.7 0 01.4-1.16c.28-.07.58-.09.87-.17a.51.51 0 00.32-.22c0-.07-.09-.24-.18-.32a4.1 4.1 0 00-2.68-1.07c-.55 0-1.1-.09-1.65-.15-.23 0-.53 0-.55-.35a.5.5 0 01.53-.58 9.88 9.88 0 001.08-.11c.15 0 .39-.14.41-.25.05-.26-.11-.43-.4-.43-.01-.12-.03-.12-.08-.12zm46.36 39.3a3.73 3.73 0 01.12 2.57c-.3.74-.48 1.54-.73 2.3a3.92 3.92 0 01-.32.65c-.38.7-.38.7-1.15.56a1.17 1.17 0 01-.74-1.49 4.39 4.39 0 00.5-.82 2.27 2.27 0 000-1 1.07 1.07 0 01.68-1.07.66.66 0 00.3-.15c.39-.39.77-.78 1.13-1.18a1.85 1.85 0 00.21-.37zm-36.73-42.05a5.08 5.08 0 01-2.34 1 8.46 8.46 0 00-3.3 1.3c-.33.2-.65.37-.89-.13-.05-.09-.23-.14-.35-.16a6 6 0 01-.93-.17 1.12 1.12 0 01.3-.2c.26-.08.53-.13.79-.2s.62-.13.73-.52a.59.59 0 01.39-.33c.52-.12 1.06-.19 1.6-.28a4.45 4.45 0 001-.14 4.4 4.4 0 011.86-.28 5.63 5.63 0 00.59 0h.57zm14.86 11.32c-.23-.35-.56-.51-.79-.36-.67.46-.72.58-.41 1.07l-1.32.5c-.1-.46.44-.88 0-1.3a1 1 0 01.89-.49h.52c.28 0 .5-.11.46-.46a.54.54 0 01.06-.31c.11-.16.23-.38.39-.41s.33.13.55.24c-.4.41-.23.64.12.82a.53.53 0 01.21.18 3.47 3.47 0 00.38.8 3 3 0 00.8.46 7 7 0 01-.75.58 3.06 3.06 0 01-.81.35 2.71 2.71 0 01-.7 0v-.13l.49-.31c-.17-.21-.43-.39-.45-.59s.22-.4.36-.64zm-6.01-4.57a4.55 4.55 0 01.51-.21c.53-.15 1.07-.29 1.61-.42.27-.06.56-.06.65.22s-.11.41-.25.5a5.2 5.2 0 01-1 .51.75.75 0 01-.94-.21c-.11-.14-.34-.17-.52-.26zm-15.39 7.47a3.64 3.64 0 011.72-1.33l-.35.31c.16.07.31.1.38.19s.4.41.36.54a.55.55 0 01-.64.41c-.47-.08-.95-.08-1.47-.12z" fill="#f5f4f2"/><path d="M220.76 186.72l-.06.44a38.42 38.42 0 11-26.09-70.83 54 54 0 00-7.44 7.47c-.43.53-.88 1.09-1.3 1.66s-.69.92-1 1.41-.5.73-.74 1.1a40 40 0 00-2.45 4.32 33.08 33.08 0 00-2.9 8.85 28.25 28.25 0 001.14 14 35.16 35.16 0 003 6.55 61.48 61.48 0 006.39 9c14.52 16.88 31.45 16.03 31.45 16.03z" transform="translate(-1.36 -58.98)" fill="url(#a)"/><path d="M378.5 120.65c-1.06 4.08-5.86 3.37-5.86 3.37s-28 .52-28.55 0-.15-2.08-.05-2.67l.05-.21h8s3.78-2-2.41-10.87c-5.21-7.49 14.43-7.83 20.85-7.74h2s7.02 14.04 5.97 18.12z" fill="#e13061"/><path d="M375.17 117.79c-1 4.07-5.89 3.31-5.89 3.31s-17.75.35-25.27.21l.05-.21h8s3.78-2-2.41-10.87c-5.21-7.49 14.43-7.83 20.85-7.74 2 4.31 5.44 12.37 4.67 15.3z" fill="#e13061"/><path d="M377.68 177.37c-1.05 4.07-7 2.71-7 2.71s-17.75.35-25.27.21l.05-.21h8s3.78-2-2.41-10.87c-5.21-7.49 14.43-7.83 20.85-7.74 1.96 4.31 6.54 12.97 5.78 15.9z" transform="translate(-1.36 -58.98)" fill="url(#c)"/><rect x="322.81" y="62.2" width="71.14" height="47.74" rx="5.63" fill="#e13061"/><rect x="322.81" y="62.2" width="71.14" height="47.74" rx="5.63" fill="url(#d)"/><rect x="321.3" y="62.2" width="71.14" height="47.74" rx="5.63" fill="#e13061"/><rect x="321.3" y="62.2" width="71.14" height="47.74" rx="5.63" fill="url(#b)"/><path d="M392.39 99.56l.05 4.74a5.63 5.63 0 01-5.64 5.63h-59.87a5.63 5.63 0 01-5.63-5.63v-4.74z" fill="#e13061"/><path fill="url(#e)" d="M344.06 121.33h27.92v2.65h-27.92z"/><path d="M377.68 177.37l.26 4.75a5.91 5.91 0 01-4.6.84v-2.66s3.96 1.14 4.34-2.93z" transform="translate(-1.36 -58.98)" fill="url(#f)"/><path d="M43.41 90.68c.81 3.09 4.47 2.53 4.47 2.53s21.24.39 21.64 0 .11-1.58 0-2a.61.61 0 000-.15h-6.07s-2.86-1.49 1.83-8.24c4-5.68-10.94-5.94-15.8-5.87h-1.49s-5.35 10.64-4.58 13.73z" fill="#e13061"/><path d="M45.94 88.51c.79 3.09 4.46 2.52 4.46 2.52s13.46.26 19.15.15a.61.61 0 000-.15h-6.1s-2.86-1.49 1.83-8.24c4-5.68-10.94-5.94-15.8-5.87-1.52 3.26-4.12 9.37-3.54 11.59z" fill="#e13061"/><path d="M46.43 148c.79 3.09 5.33 2.06 5.33 2.06s13.46.26 19.15.15a.61.61 0 000-.15h-6.1s-2.86-1.49 1.83-8.24c4-5.68-10.94-5.94-15.8-5.87-1.52 3.21-4.99 9.78-4.41 12.05z" transform="translate(-1.36 -58.98)" fill="url(#g)"/><rect x="31.71" y="46.38" width="53.92" height="36.18" rx="4.27" fill="#e13061"/><rect x="31.71" y="46.38" width="53.92" height="36.18" rx="4.27" fill="url(#h)"/><rect x="32.85" y="46.38" width="53.92" height="36.18" rx="4.27" fill="#e13061"/><rect x="32.85" y="46.38" width="53.92" height="36.18" rx="4.27" fill="url(#i)"/><path d="M32.88 74.69v3.6a4.27 4.27 0 004.27 4.27H82.5a4.27 4.27 0 004.27-4.27v-3.6z" fill="#e13061"/><path transform="rotate(-180 59.62 121.69)" fill="url(#j)" d="M49.72 150.17h21.16v2.01H49.72z"/><path d="M46.43 148l-.2 3.6a4.49 4.49 0 003.49.64v-2s-3.01.76-3.29-2.24z" transform="translate(-1.36 -58.98)" fill="url(#k)"/><path d="M269.01 67.9l-27.67-4.13a2 2 0 01-1.7-1.82l-2-22.49a2 2 0 012.3-2.17l27.7 4.14a2 2 0 011.72 1.83l1.95 22.46a2 2 0 01-2.3 2.18z" fill="#e13061"/><path d="M269.05 124.32l-25-3.73a1.81 1.81 0 01-1.55-1.59l-1.88-19.52a1.77 1.77 0 012.07-1.87l25 3.73a1.8 1.8 0 011.55 1.59l1.88 19.53a1.76 1.76 0 01-2.07 1.86z" transform="translate(-1.36 -58.98)" fill="url(#l)"/><path d="M241.848 62.982l36.1 5.395a1.23 1.23 0 011.034 1.398 1.23 1.23 0 01-1.398 1.035l-36.1-5.395a1.22 1.22 0 01-1.025-1.387 1.22 1.22 0 011.39-1.046z" fill="#e13061"/><rect x="257.55" y="126.48" width="31.57" height="2.47" rx="1.11" transform="rotate(8.5 669.572 89.137)" fill="#e13061"/><rect x="257.55" y="126.48" width="31.57" height="2.47" rx="1.11" transform="rotate(8.5 669.572 89.137)" fill="url(#m)"/><path d="M125.64 105.22l-24.18 9.15a1.84 1.84 0 01-2.19-.69L87.52 96.43a1.86 1.86 0 01.88-2.79l24.18-9.16a1.89 1.89 0 012.21.7l11.71 17.23a1.88 1.88 0 01-.86 2.81z" fill="#e13061"/><path d="M124.76 162.73L102.94 171a1.64 1.64 0 01-2-.58l-10.29-14.9a1.62 1.62 0 01.82-2.44l21.82-8.27a1.67 1.67 0 012 .58l10.33 14.9a1.63 1.63 0 01-.86 2.44z" transform="translate(-1.36 -58.98)" fill="url(#n)"/><path d="M101.505 113.509l31.533-11.947a1.14 1.14 0 011.47.662 1.14 1.14 0 01-.662 1.47l-31.533 11.947a1.13 1.13 0 01-1.485-.646 1.13 1.13 0 01.677-1.486z" fill="#e13061"/><rect x="115.16" y="162.39" width="29.17" height="2.28" rx="1.03" transform="rotate(-20.75 -32.044 137.716)" fill="#e13061"/><rect x="115.16" y="162.39" width="29.17" height="2.28" rx="1.03" transform="rotate(-20.75 -32.044 137.716)" fill="url(#o)"/><rect x="123.09" y="176.02" width="37.06" height="73.8" rx="6.53" transform="rotate(-5.37 -487.775 198.096)" fill="#e13061"/><rect x="123.09" y="176.02" width="37.06" height="73.8" rx="6.53" transform="rotate(-5.37 -487.775 198.096)" fill="url(#p)"/><rect x="123.01" y="175.95" width="37.06" height="72.23" rx="6.46" transform="rotate(-5.37 -487.842 197.238)" fill="#e13061"/><rect x="124.78" y="177.61" width="33.33" height="64.84" rx="5.8" transform="rotate(-5.37 -487.96 195.202)" fill="#f5f4f2"/><path d="M184.43 47.87a3.05 3.05 0 01-2-5.4c4.68-3.89 16.32-9.09 26.93-1a3.06 3.06 0 11-3.71 4.86c-9.36-7.15-18.91.51-19.32.84a3.07 3.07 0 01-1.9.7z" fill="#e13061"/><path d="M177.18 38.02a3 3 0 01-2.16-.89 3.06 3.06 0 010-4.31c.18-.17 17.81-17.53 40.37-1.39a3.066 3.066 0 01-3.55 5c-18.26-13.05-31.91.16-32.48.73a3 3 0 01-2.18.86z" fill="#e13061"/><path d="M222.84 26.56a3.11 3.11 0 01-1.8-.58c-27.16-19.83-50.27-.95-51.24-.13a3.06 3.06 0 01-3.94-4.68c.27-.23 27.67-22.84 58.79-.13a3.06 3.06 0 01-1.81 5.52z" fill="#e13061"/></svg>